<svg width="58.000000" height="88.000000" viewBox="0 0 58 88" fill="none" xmlns="http://www.w3.org/2000/svg" xmlns:xlink="http://www.w3.org/1999/xlink">
	<desc>
			Created with Pixso.
	</desc>
	<defs>
		<clipPath id="clip1_269">
			<rect id="IMAGE" width="58.000000" height="88.000000" fill="white" fill-opacity="0"/>
		</clipPath>
	</defs>
	<g clip-path="url(#clip1_269)">
		<path id="Vector" d="M44.2457 54.3773C44.1647 54.1948 43.9594 54.2378 43.9161 54.433C43.4954 56.334 44.0247 64.3506 40.5245 63.3298C38.0922 62.6201 38.0922 56.0896 42.8997 52.4115C49.2392 47.5621 44.9877 35.7755 43.4199 31.6787C43.2845 31.3275 42.8159 31.4562 42.8399 31.8365C43.1612 36.7944 43.9253 40.2289 42.1025 42.9008C40.0679 45.881 37.3566 40.1732 39.9555 38.1454C42.5545 36.1157 42.3307 32.0244 40.4637 29.3317C38.895 27.0684 38.512 23.1432 38.4319 20.7413C38.4116 20.1293 37.6438 20.0161 37.4836 20.6018C36.7223 23.3831 37.1191 26.3496 36.4553 29.1565C36.1948 30.2603 35.739 31.3448 34.9933 32.2169C34.4934 32.8008 33.8351 33.3937 33.083 33.6254C32.0638 33.941 31.4249 33.235 31.2776 32.2754C31.1294 31.3093 31.3329 30.2867 31.6256 29.3663C31.9662 28.299 32.2977 27.2408 32.4984 26.1361C32.8906 23.9761 32.8933 21.5149 31.4443 19.7123C30.9213 19.0637 30.2456 18.5511 29.5017 18.1707C23.6981 15.2061 25.9545 14.7517 25.7787 9.01025C25.7548 8.20483 24.6445 7.98865 24.3057 8.72107C20.6443 16.6692 21.3864 19.3027 23.0941 23.0555C25.4012 28.1274 27.7092 34.9755 23.5489 34.6726C19.8784 34.4044 21.4222 24.9073 20.3212 21.3634C20.1398 20.7769 19.2689 20.89 19.2449 21.5031C19.1547 23.9039 18.7202 27.8301 16.9396 30.0924C14.8222 32.7861 14.5681 36.8774 17.5169 38.9062C20.4648 40.9349 17.388 46.6417 15.0809 43.6616C13.0122 40.9897 13.8795 37.5543 14.2431 32.5964C14.2717 32.2151 13.7396 32.0865 13.5867 32.4377C11.808 36.5344 7.96533 47.3861 14.1833 53.1722C15.7253 54.6063 17.5408 55.7784 18.7349 57.5464C19.5322 58.7268 19.963 60.2821 19.522 61.6722C19.0884 63.0406 17.3494 64.678 15.9196 63.4994C14.7181 62.5096 14.5064 60.4034 14.2882 58.9867C14.0931 57.7151 13.9937 56.4325 13.803 55.16C13.7662 54.9165 13.5969 53.6138 13.259 54.3773C12.4194 56.2748 9.84155 63.7192 13.5223 69.6213C14.0415 70.4541 14.6096 71.2587 15.1518 72.076C16.7141 74.4341 18.7524 76.5039 21.3219 77.7728C25.0375 79.6064 29.4732 79.8718 33.4301 78.6851C38.3269 77.2164 42.7423 72.6189 44.7999 68.0632C46.6955 63.8689 46.0704 58.5042 44.2466 54.3773L44.2457 54.3773Z" fill="#000000" fill-opacity="1.000000" fill-rule="nonzero"/>
		<path id="Vector" d="M38.8775 0.669922C48.7924 0.669922 56.8299 8.63391 56.8299 18.458L56.8299 69.2208C56.8299 79.045 48.7924 87.009 38.8775 87.009L18.4127 87.009C8.49786 87.009 0.460327 79.045 0.460327 69.2208L0.460327 18.458C0.460327 8.63391 8.49786 0.669922 18.4127 0.669922L38.8775 0.669922Z" stroke="#000000" stroke-opacity="1.000000" stroke-width="1.015873"/>
	</g>
</svg>
