<svg width="58.000000" height="58.000000" viewBox="0 0 58 58" fill="none" xmlns="http://www.w3.org/2000/svg" xmlns:xlink="http://www.w3.org/1999/xlink">
	<desc>
			Created with Pixso.
	</desc>
	<defs>
		<clipPath id="clip1_253">
			<rect id="IMAGE" width="58.000000" height="58.000000" fill="white" fill-opacity="0"/>
		</clipPath>
	</defs>
	<g clip-path="url(#clip1_253)">
		<path id="Vector" d="M29 57.5397C13.238 57.5397 0.460316 44.7621 0.460316 29C0.460316 13.238 13.238 0.460327 29 0.460327C44.762 0.460327 57.5397 13.238 57.5397 29C57.5397 44.7621 44.762 57.5397 29 57.5397Z" stroke="#000000" stroke-opacity="1.000000" stroke-width="1.015873"/>
		<path id="Vector" d="M37.9486 21.3955C37.8694 21.1157 37.4827 21.1342 37.4422 21.4222C37.2001 23.1116 38.5921 27.1082 38.095 28.9568C38.0915 28.969 38.0882 28.9813 38.0848 28.9935C37.9771 29.3894 37.4091 29.3121 37.4045 28.9005C37.3879 27.3032 36.9791 25.5559 36.1027 24.4861C32.8004 20.4565 36.3273 17.4829 36.1966 16.5189C36.1937 16.4894 36.184 16.4607 36.1683 16.4354C36.1526 16.4102 36.1313 16.3888 36.106 16.373C36.0807 16.3573 36.0522 16.3475 36.0226 16.3446C35.9929 16.3417 35.963 16.3456 35.9352 16.356C35.9305 16.3578 35.9269 16.3588 35.9259 16.3606C35.7142 16.4803 35.5172 16.6249 35.3202 16.7656C33.9991 17.7102 32.7884 18.8463 32.0887 20.3773C31.6873 21.2574 31.5815 22.2397 31.3522 23.1742C31.2638 23.5295 31.1635 23.8812 31.0457 24.2274C30.914 24.616 30.7299 25.0063 30.438 25.2944C30.3073 25.4233 30.148 25.5182 29.9713 25.5531C29.5073 25.6453 29.2615 25.3137 29.1731 24.9243C28.9273 23.8398 29.1086 22.7443 29.2007 21.6525C29.5708 17.2573 24.9124 16.8485 26.6137 10.4391C27.0648 8.74146 20.9702 14.3232 23.0232 19.1796C23.4256 20.1296 23.3878 21.0356 22.933 21.9507C22.4478 22.9265 21.8503 23.8086 21.5557 24.8765C21.4508 25.2604 21.391 25.6489 21.344 26.043C21.2842 26.5502 21.4269 27.3134 20.776 27.4451C20.5053 27.5002 20.1315 27.4698 19.9069 27.2886C19.732 27.1459 19.6353 26.924 19.5782 26.7021C19.3085 25.6654 19.3416 24.6168 19.4696 23.5591C19.5828 22.6273 19.6611 20.8727 18.7202 22.6237C15.6858 28.2672 15.7944 35.2944 19.4981 40.588C20.9224 42.6235 22.7296 43.9208 25.0928 44.5137C29.9004 45.7196 35.6479 45.3541 38.674 41.1055C39.8304 39.4823 40.5245 37.5002 40.9784 35.5586C41.5584 33.0784 41.6689 30.7225 40.7611 28.3159C39.881 25.9803 38.6363 23.8094 37.9486 21.3955Z" fill="#000000" fill-opacity="1.000000" fill-rule="nonzero"/>
	</g>
</svg>
