<svg width="695.068237" height="698.040283" viewBox="0 0 695.068 698.04" fill="none" xmlns="http://www.w3.org/2000/svg" xmlns:xlink="http://www.w3.org/1999/xlink">
	<desc>
			Created with Pixso.
	</desc>
	<defs/>
	<path id="Vector" d="M246.136 595.27L102.927 595.3L102.934 450.854L102.934 450.645L102.786 450.499L0.726379 349.018L102.786 247.541L102.934 247.395L102.934 247.186L102.943 102.645L246.137 102.636L246.343 102.636L246.489 102.489L347.535 0.726807L448.582 102.493L448.728 102.64L448.934 102.64L591.738 102.647L591.837 247.188L591.838 247.396L591.985 247.542L694.341 349.019L591.985 450.5L591.837 450.646L591.837 450.854L591.81 595.271L448.728 595.271L448.582 595.418L347.535 697.313L246.489 595.417L246.343 595.27L246.136 595.27Z" fill="#FFFCF7" fill-opacity="1.000000" fill-rule="nonzero"/>
	<path id="Vector" d="M102.927 595.3L102.934 450.854L102.934 450.645L102.786 450.499L0.726379 349.018L102.786 247.541L102.934 247.395L102.934 247.186L102.943 102.645L246.137 102.636L246.343 102.636L246.489 102.489L347.535 0.726807L448.582 102.493L448.728 102.64L448.934 102.64L591.738 102.647L591.837 247.188L591.838 247.396L591.985 247.542L694.341 349.019L591.985 450.5L591.837 450.646L591.837 450.854L591.81 595.271L448.728 595.271L448.582 595.418L347.535 697.313L246.489 595.417L246.343 595.27L246.136 595.27L102.927 595.3Z" stroke="#000000" stroke-opacity="1.000000" stroke-width="1.024320"/>
</svg>
